<svg width="512" height="473.763" xmlns="http://www.w3.org/2000/svg" clip-rule="evenodd" fill-rule="evenodd" image-rendering="optimizeQuality" text-rendering="geometricPrecision" shape-rendering="geometricPrecision" xmlns:xlink="http://www.w3.org/1999/xlink">

 <g>
  <title>Layer 1</title>
  <path id="svg_1" d="m9.005,183.371a12.09,12.09 0 0 1 2.537,-2.598l236.474,-178.367c4.177,-3.127 10.077,-3.288 14.458,0l115.875,87.017l0,-19.058c-5.821,-0.01 -10.537,-4.731 -10.537,-10.552l0,-25.224c0,-5.827 4.725,-10.551 10.552,-10.551l83.575,0c5.827,0 10.552,4.724 10.552,10.551l0,25.224c0,5.824 -4.719,10.545 -10.54,10.552l0,81.843l36.413,27.344a12.04,12.04 0 0 1 2.185,1.85c30.558,32.907 -5.7,80.853 -42.52,71.541l0,207.555c0,7.325 -5.94,13.265 -13.265,13.265l-379.886,0c-7.325,0 -13.265,-5.94 -13.265,-13.265l0,-208.351c-36.464,7.471 -67.578,-36.805 -42.608,-68.776z" fill-rule="nonzero"/>
  <path id="svg_2" d="m256.738,100.953l188.026,145.986l0,213.559l-53.971,0l0.003,-0.158l0,-146.098c0,-5.554 -4.368,-10.057 -9.755,-10.057l-100.137,0c-5.387,0 -9.755,4.503 -9.755,10.057l0,146.098l0.003,0.158l-206.274,0l0,-213.404l191.86,-146.141zm-128.139,203.436l106.641,0c5.554,0 10.056,4.411 10.056,9.853l0,83.429c0,5.442 -4.502,9.853 -10.056,9.853l-106.641,0c-5.554,0 -10.057,-4.411 -10.057,-9.853l0,-83.429c0,-5.442 4.503,-9.853 10.057,-9.853z" fill="#e8e8ef"/>
  <path id="svg_3" d="m256.738,100.953l14.222,11.056l-180.828,143.981l-3.339,204.508l-23.009,0l1.094,-213.58l191.86,-145.965z" fill="#c7c7c9"/>
  <path id="svg_4" d="m451.399,71.365l0,73.919l-62.498,-46.937l0,-26.982l62.498,0z" fill="#0c2d55"/>
  <path id="svg_5" d="m378.364,34.589l83.575,0l0,25.225l-83.575,0l0,-25.225z" fill="#e8e8ef"/>
  <path id="svg_6" d="m18.794,190.38c-20.167,25.077 9.009,61.919 38.549,47.153l199.49,-151.768l193.23,150.203c28.924,21.505 66.555,-19.596 41.678,-46.372l-236.473,-177.584l-236.474,178.368z" fill="#0c2d55"/>
  <path id="svg_7" d="m18.794,190.38c-15.914,23.528 0.939,31.801 30.48,17.035l206.711,-155.24l22.805,-22.495l-23.522,-17.668l-236.474,178.368z" fill="#0b2849"/>
  <path id="svg_8" d="m280.904,314.242l100.137,0l0,146.098l-100.137,0l0,-146.098zm84.174,62.882l4.357,2.208a2.33,2.33 0 0 1 1.276,2.073l0.006,16.078a2.333,2.333 0 0 1 -1.899,2.29l-4.314,1.249a2.316,2.316 0 0 1 -2.868,-1.583l-0.095,-0.644l-0.009,-19.687a2.331,2.331 0 0 1 3.546,-1.984z" fill="#0c2d55"/>
  <path id="svg_9" d="m280.904,314.242l100.137,0l0,2.755c-118.269,-0.246 -91.937,43.89 -91.937,143.343l-8.2,0l0,-146.098z" fill="#0b2849"/>
  <path id="svg_10" d="m128.599,314.242l48.101,0l0,37.695l-47.861,0l-0.24,0.009l0,-37.704zm56.14,0l50.501,0l0,37.853a4.022,4.022 0 0 0 -1.121,-0.158l-49.38,0l0,-37.695zm50.501,45.576l0,37.853l-50.501,0l0,-37.695l49.38,0c0.389,0 0.766,-0.055 1.121,-0.158zm-58.54,37.853l-48.101,0l0,-37.704l0.24,0.009l47.861,0l0,37.695z" fill="#fff"/>
  <path id="svg_11" d="m253.533,182.475c14.176,0 25.67,11.49 25.67,25.669c0,14.177 -11.494,25.67 -25.67,25.67c-14.18,0 -25.67,-11.493 -25.67,-25.67c0,-14.179 11.49,-25.669 25.67,-25.669z"/>
 </g>
</svg>